<svg id="eye_open" xmlns="http://www.w3.org/2000/svg" xmlns:xlink="http://www.w3.org/1999/xlink" version="1.1" x="0px" y="0px" viewBox="0 0 100 125" enable-background="new 0 0 100 100" xml:space="preserve"><path d="M94.8,41.7l-0.3-0.5c-0.4-0.7-1.3-0.9-2-0.5l-4.3,2.5c-1.5-2.4-3.2-4.6-5.1-6.7l3.5-3.5c0.6-0.6,0.6-1.5,0-2.1l-0.4-0.4  c-0.6-0.6-1.5-0.6-2.1,0l-3.5,3.5c-2.1-1.9-4.3-3.6-6.7-5.1l2.5-4.3c0.4-0.7,0.2-1.6-0.5-2l-0.5-0.3c-0.7-0.4-1.6-0.2-2,0.5  l-2.5,4.3c-2.5-1.3-5.1-2.4-7.7-3.2l1.3-4.8c0.2-0.8-0.3-1.6-1-1.8l-0.5-0.1c-0.8-0.2-1.6,0.3-1.8,1l-1.2,4.8  c-2.7-0.6-5.2-1-8.2-1.1v-5c0-0.8-0.9-1.2-1.7-1.2h-0.5c-0.8,0-1.7,0.4-1.7,1.2v5c-3,0.1-5.5,0.5-8.2,1.1l-1.2-4.8  c-0.2-0.8-1-1.2-1.7-1l-0.5,0.1c-0.8,0.2-1.2,1-1,1.8l1.3,4.8c-2.7,0.8-5.3,1.9-7.7,3.2L26.4,23c-0.4-0.7-1.3-0.9-2-0.5L24,22.8  c-0.7,0.4-0.9,1.3-0.5,2l2.5,4.3c-2.4,1.5-4.6,3.2-6.7,5.1l-3.5-3.5c-0.6-0.6-1.5-0.6-2.1,0L13.3,31c-0.6,0.6-0.6,1.5,0,2.1l3.5,3.5  c-1.9,2-3.6,4.3-5.1,6.7l-4.3-2.5c-0.7-0.4-1.6-0.2-2,0.5l-0.3,0.5c-0.4,0.7-0.2,1.6,0.5,2l4.3,2.5c-0.5,1-1,2-1.4,3l-0.4,0.9  L8.6,51C16,67.2,32.6,78.1,50,78.1c17.4,0,34-10.9,41.4-27.1l0.4-0.9l-0.4-0.9c-0.4-1-0.9-2-1.4-3l4.3-2.5  C95,43.3,95.2,42.4,94.8,41.7z M50,73.8c-15.4,0-30.2-9.5-37-23.7c6.6-14.4,21-23.6,37-23.6c16,0,30.5,9.2,37,23.6  C80.2,64.3,65.4,73.8,50,73.8z"/><circle cx="50" cy="50.1" r="17.2"/><text x="0" y="115" fill="#000000" font-size="5px" font-weight="bold" font-family="'Helvetica Neue', Helvetica, Arial-Unicode, Arial, Sans-serif">Created by Kirby Wu</text><text x="0" y="120" fill="#000000" font-size="5px" font-weight="bold" font-family="'Helvetica Neue', Helvetica, Arial-Unicode, Arial, Sans-serif">from the Noun Project</text></svg>