<svg id="eye_closed" xmlns="http://www.w3.org/2000/svg" xmlns:xlink="http://www.w3.org/1999/xlink" version="1.1" x="0px" y="0px" viewBox="0 0 100 125" enable-background="new 0 0 100 100" xml:space="preserve"><path d="M94.3,56.3l-4.3-2.5c0.5-1,1-2,1.4-3l0.3-0.8H87c-6.6,14.4-21,23.6-37,23.6c-16,0-30.4-9.2-37-23.6H8.3l0.3,0.8  c0.4,1,0.9,2,1.4,3l-4.3,2.5c-0.7,0.4-0.9,1.3-0.5,2l0.3,0.5c0.4,0.7,1.3,0.9,2,0.5l4.3-2.5c1.5,2.4,3.2,4.6,5.1,6.7L13.3,67  c-0.6,0.6-0.6,1.5,0,2.1l0.4,0.4c0.6,0.6,1.5,0.6,2.1,0l3.5-3.5c2.1,1.9,4.3,3.6,6.7,5.1l-2.5,4.3c-0.4,0.7-0.2,1.6,0.5,2l0.5,0.3  c0.7,0.4,1.6,0.2,2-0.5l2.5-4.3c2.5,1.3,5.1,2.4,7.7,3.2l-1.3,4.8c-0.2,0.8,0.2,1.6,1,1.8l0.5,0.1c0.8,0.2,1.5-0.3,1.7-1l1.2-4.8  c2.7,0.6,5.2,1,8.2,1.1v5c0,0.8,0.9,1.1,1.7,1.1h0.5c0.8,0,1.7-0.3,1.7-1.1v-5c3-0.1,5.5-0.5,8.2-1.1l1.2,4.8c0.2,0.8,1,1.2,1.8,1  l0.5-0.1c0.8-0.2,1.2-1,1-1.8l-1.3-4.8c2.7-0.8,5.3-1.9,7.7-3.2l2.5,4.3c0.4,0.7,1.3,0.9,2,0.5l0.5-0.3c0.7-0.4,0.9-1.3,0.5-2  L74.1,71c2.4-1.5,4.6-3.2,6.7-5.1l3.5,3.5c0.6,0.6,1.5,0.6,2.1,0l0.4-0.4c0.6-0.6,0.6-1.5,0-2.1l-3.5-3.5c1.9-2,3.6-4.3,5.1-6.7  l4.3,2.5c0.7,0.4,1.6,0.2,2-0.5l0.3-0.5C95.2,57.6,95,56.7,94.3,56.3z"/><text x="0" y="115" fill="#000000" font-size="5px" font-weight="bold" font-family="'Helvetica Neue', Helvetica, Arial-Unicode, Arial, Sans-serif">Created by Kirby Wu</text><text x="0" y="120" fill="#000000" font-size="5px" font-weight="bold" font-family="'Helvetica Neue', Helvetica, Arial-Unicode, Arial, Sans-serif">from the Noun Project</text></svg>