<svg id="horseshoe" xmlns="http://www.w3.org/2000/svg" width="264.19" height="251.01" viewBox="0 0 264.19 251.01">
  <defs>
    <style>
      .cls-1 {
        fill: #fff;
      }

      .cls-1, .cls-2 {
        stroke: #000;
        stroke-miterlimit: 10;
      }

      .cls-2 {
        fill: none;
      }
    </style>
  </defs>
  <title>horseshoe</title>
  <g>
    <path id="ring" class="cls-1" d="M131.25,0.5c-2.3.23-5.64,0.57-9,.88-2.08.19-4.19,0.24-6.26,0.5-4.06.53-8.12,1.14-12.17,1.78-0.75.12-1.43,0.63-2.18,0.82-2.15.56-4.36,0.93-6.48,1.58C92.1,7,89,8.08,86,9.21S79.8,11.66,76.75,13c-1.92.85-3.73,1.93-5.6,2.9-0.62.32-1.29,0.57-1.88,0.93-2.3,1.4-4.6,2.81-6.87,4.27S58,24,55.88,25.43c-0.84.58-1.57,1.32-2.4,1.9-1.11.78-2.35,1.39-3.41,2.24-1.88,1.51-3.66,3.13-5.47,4.72-1,.85-1.92,1.71-2.84,2.61-1.19,1.15-2.34,2.34-3.51,3.51-0.75.75-1.53,1.46-2.23,2.25-1.35,1.53-2.64,3.1-4,4.66-0.48.57-1,1.13-1.44,1.73-0.72,1-1.37,2-2.12,2.94s-1.92,2-2.67,3.11q-3.34,5-6.5,10.13c-1,1.55-1.72,3.23-2.59,4.83-1.21,2.23-2.58,4.39-3.62,6.7-1.37,3-2.49,6.14-3.7,9.23A67.42,67.42,0,0,0,5.69,96.93c-0.61,3-1.64,5.86-2.3,8.83-0.52,2.31-.76,4.69-1.13,7-0.07.46-.19,0.92-0.23,1.39a48.77,48.77,0,0,1-.53,5.65c-1,4.65-.9,9.36-1,14.06,0,2.5.17,5,.33,7.5,0.1,1.56.29,3.11,0.48,4.66,0.12,1,.33,1.91.46,2.87,0.46,3.39.83,6.78,1.36,10.16,0.29,1.84.83,3.65,1.28,5.47,0.75,3,1.37,6,2.32,8.9C8,177.27,9.55,181,10.88,184.77a80.58,80.58,0,0,0,5.63,11.94c0.81,1.47,1.59,3,2.47,4.38,1.66,2.68,3.31,5.38,5.12,8,1.47,2.1,3.19,4,4.77,6.07,1.18,1.52,2.23,3.13,3.48,4.59,2.22,2.58,4.53,5.09,6.83,7.6,0.54,0.59,1.25,1,1.83,1.6,1.36,1.31,2.62,2.73,4,4,1.9,1.65,3.86,3.23,5.89,4.72,3.76,2.75,7.58,5.41,11.38,8.12a17,17,0,0,0,2.17,1.53A35.33,35.33,0,0,0,68.75,249c0.91,0.31,1.95.26,2.88,0.54a18.27,18.27,0,0,0,9.89.43,43.05,43.05,0,0,0,7.07-2,26.62,26.62,0,0,0,8.1-5.49,30.44,30.44,0,0,0,5.91-8.1,38.45,38.45,0,0,0,2.46-8.28,18.34,18.34,0,0,0,.11-8.12,53.12,53.12,0,0,0-2.44-7.92c-0.51-1.33-1.66-2.41-2.35-3.69-1.57-2.92-4.15-4.9-6.47-7.09-1.4-1.33-3.25-2.16-4.82-3.32-2.73-2-5.48-4-8.06-6.21a46.93,46.93,0,0,1-4.29-4.61c-1.77-2-3.59-3.93-5.25-6a51.28,51.28,0,0,1-3.45-5c-0.84-1.36-1.52-2.82-2.27-4.23a58.15,58.15,0,0,1-3-5.7c-1.27-3.22-2.35-6.51-3.38-9.82a57.06,57.06,0,0,1-2.11-8.14c-0.5-3.26-.57-6.59-0.78-9.9a60.93,60.93,0,0,1-.21-6.19c0.09-2.2.44-4.39,0.68-6.58a30.14,30.14,0,0,1,.46-3.74c0.71-3,1.51-5.89,2.34-8.81a51.46,51.46,0,0,1,1.94-6c1.14-2.68,2.42-5.32,3.81-7.88a71.51,71.51,0,0,1,4.93-8.24c2.15-2.94,4.7-5.58,7.06-8.36a23.53,23.53,0,0,1,1.77-2.2c1.62-1.5,3.3-2.94,5-4.32,1.92-1.55,3.83-3.11,5.88-4.47a59.79,59.79,0,0,1,6.09-3.43c2.52-1.28,5.09-2.47,7.68-3.61a43.58,43.58,0,0,1,6.41-2.47,115.27,115.27,0,0,1,12.48-2.67,55.41,55.41,0,0,1,10.58-.44c3.78,0.19,7.64-.15,11.34,1.26,1.68,0.64,3.6.66,5.39,1a42.21,42.21,0,0,1,4.26,1.09c1.92,0.62,3.82,1.31,5.71,2a42.23,42.23,0,0,1,4.94,2.11c2.95,1.6,5.82,3.35,8.7,5.06A30.81,30.81,0,0,1,177,71.63a53.5,53.5,0,0,1,4.36,3.7c3,2.88,6,5.75,8.78,8.8a43.91,43.91,0,0,1,4.37,5.93,78.06,78.06,0,0,1,3.9,6.78c1.56,3,3.09,6.12,4.39,9.27a52.2,52.2,0,0,1,2.48,7.67c0.74,3.07,1.26,6.21,1.72,9.34a67,67,0,0,1,.9,8.81c0,2.93-.46,5.86-0.64,8.79a31.83,31.83,0,0,1-1,7.47c-0.23.74-.3,1.53-0.5,2.29a76.08,76.08,0,0,1-2.45,9c-1.55,3.91-3.55,7.64-5.41,11.42a44.35,44.35,0,0,1-2.48,4.37,70.42,70.42,0,0,1-4.13,6c-1.65,2.05-3.48,4-5.32,5.85a45.26,45.26,0,0,1-3.87,3.41q-3.92,3.18-7.91,6.27c-1.82,1.41-3.78,2.65-5.54,4.13a24.56,24.56,0,0,0-3.56,3.75,26.37,26.37,0,0,0-3.64,5.48A68.64,68.64,0,0,0,159,218.3a5.09,5.09,0,0,0-.22,1.5,49.24,49.24,0,0,0,.26,5.37,25.81,25.81,0,0,0,1.32,6.29,38.44,38.44,0,0,0,4.21,7.81,28.71,28.71,0,0,0,5.46,5.51,26.74,26.74,0,0,0,17.54,5.66A22.76,22.76,0,0,0,198,247.88c1.51-.81,3.09-1.53,4.52-2.47,2.29-1.51,4.52-3.11,6.68-4.79,3.39-2.63,6.72-5.34,10-8.07,1.06-.87,1.95-1.94,3-2.88,1.55-1.44,3.21-2.77,4.68-4.29,1.77-1.84,3.39-3.81,5.06-5.74,1.42-1.64,2.93-3.22,4.19-5,2.29-3.17,4.44-6.44,6.62-9.69,1.13-1.68,2.26-3.37,3.29-5.11,0.43-.72.5-1.64,0.89-2.39,0.57-1.1,1.39-2.08,1.91-3.2,1.86-4,3.75-8,5.4-12.09,1.37-3.39,2.4-6.9,3.59-10.36a17.32,17.32,0,0,0,.61-1.63c0.59-2.53,1.14-5.07,1.71-7.61,0.51-2.29,1.12-4.56,1.49-6.87,0.44-2.75.72-5.54,1-8.31,0.36-3.77.74-7.54,0.94-11.32a109,109,0,0,0-1.19-19.43c-0.44-3.47-1.08-6.91-1.65-10.35a53.21,53.21,0,0,0-1-5.45c-0.94-3.42-2-6.81-3.1-10.18-0.72-2.17-1.61-4.28-2.46-6.4-0.75-1.89-1.49-3.78-2.35-5.62-1-2.22-2.18-4.4-3.29-6.58s-2.21-4.55-3.49-6.72c-1.17-2-2.58-3.82-3.91-5.69-2.76-3.88-5.4-7.85-8.35-11.58a106.36,106.36,0,0,0-7.63-8.41c-2.4-2.45-4.9-4.82-7.52-7a105.48,105.48,0,0,0-8.93-6.94c-4.49-3-9.15-5.82-13.75-8.69a31.11,31.11,0,0,0-3.37-1.9c-2.11-1-4.28-1.84-6.42-2.77-2.57-1.12-5.11-2.3-7.71-3.36a66.7,66.7,0,0,0-6.69-2.48c-2.84-.82-5.84-1.17-8.62-2.13a64,64,0,0,0-9.39-2c-3.1-.58-6.25-0.94-9.4-1.21C139.7,0.86,136,.76,131.25.5Z"/>
    <path id="rightFront" class="cls-2" d="M227.87,116.91a16,16,0,0,1-12.79-6.69,24.9,24.9,0,0,1-3.26-6.95A62.12,62.12,0,0,0,205.39,90c-2.75-4.22-5.81-8.25-8.88-12.26-1.35-1.76-3.05-3.24-4.56-4.88a16,16,0,0,1-4-7.18c-0.47-1.95-1.27-3.87-1.05-5.85,0.46-4.23,1.32-8.34,4.66-11.49,1.72-1.62,3.33-3.4,5.63-4.09a18.29,18.29,0,0,1,9.35-.81c3.64,0.83,7.07,2.24,9.49,5.4,1,1.27,2.35,2.23,3.37,3.47,3,3.65,6.16,7.24,8.89,11.1a149.87,149.87,0,0,1,8.19,13.11,103.39,103.39,0,0,1,4.65,10.18,84.09,84.09,0,0,1,3,8,17.39,17.39,0,0,1-.25,10.63,14.91,14.91,0,0,1-4.69,7.47c-2.44,1.95-5.08,3.65-8.39,3.82C229.81,116.65,228.85,116.8,227.87,116.91Z"/>
    <path id="leftEar" class="cls-2" d="M32.94,135.79a16.33,16.33,0,0,1,16.39,13,77.75,77.75,0,0,0,2,7.58c1,2.93,2.12,5.82,3.34,8.66,1.06,2.46,2.31,4.84,3.49,7.25a75,75,0,0,0,8,12,14,14,0,0,1,2.49,5.37,18.46,18.46,0,0,1,.93,5.42,19.15,19.15,0,0,1-2.55,9.29,16.07,16.07,0,0,1-12,7.7,15.27,15.27,0,0,1-9.63-1.73,19,19,0,0,1-6.14-5.47,88.59,88.59,0,0,1-7.09-10.65c-1.65-3.09-3.45-6.1-5-9.22a75.17,75.17,0,0,1-3.29-7.34c-1.19-3.11-2.2-6.3-3.24-9.47-0.79-2.39-1.65-4.77-2.2-7.22A47.17,47.17,0,0,1,17,152.63a16.45,16.45,0,0,1,2.1-8.21,16.68,16.68,0,0,1,11-8.5,2,2,0,0,1,.45-0.12C31.34,135.79,32.14,135.79,32.94,135.79Z"/>
    <path id="leftFront" class="cls-2" d="M62.29,42.91a15.07,15.07,0,0,1,8.93,2.46,16,16,0,0,1,5.35,6.28,22.12,22.12,0,0,1,1.05,3.28,17.25,17.25,0,0,1,0,10c-0.84,3.42-2.92,5.92-5.17,8.41-3,3.27-5.95,6.53-8.71,10A55.87,55.87,0,0,0,59,90.48c-1.45,2.51-2.67,5.17-3.94,7.78q-1.3,2.68-2.43,5.44c-0.5,1.21-.73,2.55-1.32,3.72a13.25,13.25,0,0,1-6.72,6.51,39.21,39.21,0,0,1-4,1.81,11.6,11.6,0,0,1-6.84,0,20.73,20.73,0,0,1-6.54-3,17.94,17.94,0,0,1-3.82-4.37c-2.15-3.16-2.61-6.83-2.62-10.54a12.49,12.49,0,0,1,.61-3.58c0.59-2,1.3-3.92,2.05-5.84a57.89,57.89,0,0,1,2.66-6.25c2.7-5.06,5.43-10.11,8.39-15A75.43,75.43,0,0,1,40,59.8c1.87-2.38,3.73-4.78,5.74-7,3.15-3.57,6.23-7.3,11-8.87,1.79-.59,3.67-0.89,5.5-1.32Z"/>
    <path id="rightEar" class="cls-2" d="M195.37,196.5a46,46,0,0,1,1.38-6.46,24.41,24.41,0,0,1,2.86-4.94c1.53-2.32,3.21-4.54,4.73-6.87a70.52,70.52,0,0,0,8-16.44c1.21-3.69,2-7.51,3.17-11.22a18.18,18.18,0,0,1,4.17-7.16,15.64,15.64,0,0,1,8.25-4.84c5.08-1,9.83-.28,14,3.14a13.34,13.34,0,0,1,4.16,4.9c1.13,2.62,2.56,5.22,2.18,8.16a59.23,59.23,0,0,1-1.73,8.49c-1.09,3.89-2.54,7.68-3.68,11.55-1.44,4.88-3.83,9.34-6.14,13.81-1.95,3.77-4.48,7.23-6.64,10.9a42.61,42.61,0,0,1-6.63,8.7,14.64,14.64,0,0,1-8.86,4.16,18.4,18.4,0,0,1-7.82-.56,15.64,15.64,0,0,1-10.25-10.13A37.92,37.92,0,0,1,195.37,196.5Z"/>
    <path id="front" class="cls-2" d="M130.66,11.23c2,0,4.08-.11,6.11,0a21.86,21.86,0,0,1,4.22.84,56.34,56.34,0,0,1,5.66,1.8,36.76,36.76,0,0,1,4,2.07,16.18,16.18,0,0,1,4.7,3.74A26.37,26.37,0,0,1,157.13,22a13.78,13.78,0,0,1,2.32,8.47,14.5,14.5,0,0,1-3.14,7.81,19,19,0,0,1-7.24,5.64,18.66,18.66,0,0,1-3.76,1.84c-2.9.7-5.62,2.16-8.74,2-1.64-.07-3.3.46-4.94,0.4-3.33-.12-6.68-0.32-10-0.75a20.4,20.4,0,0,1-4.73-1.57A32.12,32.12,0,0,1,112,43.61c-2.44-1.49-4.91-3-6.56-5.45a39.8,39.8,0,0,1-2.38-3.87,5.17,5.17,0,0,1-.49-2.27c0-3.05-.54-6.26,1.42-8.93a40,40,0,0,1,4.72-5.38c2.67-2.53,6.08-3.79,9.47-5.09C122.28,11.07,126.46,11.1,130.66,11.23Z"/>
  </g>
</svg>
