<svg id="jaw_clench" xmlns="http://www.w3.org/2000/svg" xmlns:xlink="http://www.w3.org/1999/xlink" version="1.1" x="0px" y="0px" viewBox="0 0 100 125" style="enable-background:new 0 0 100 100;" xml:space="preserve"><path d="M59,44H42c-3.3,0-6,2.7-6,6s2.7,6,6,6h17c3.3,0,6-2.7,6-6S62.3,44,59,44z M42,54c-1.9,0-3.4-1.3-3.9-3H42  V54z M42,49h-3.9c0.4-1.7,2-3,3.9-3V49z M47,54h-3v-3h3V54z M47,49h-3v-3h3V49z M52,54h-3v-3h3V54z M52,49h-3v-3h3V49z M57,54h-3v-3  h3V54z M57,49h-3v-3h3V49z M59,54v-3h3.9C62.4,52.7,60.9,54,59,54z M59,49v-3c1.9,0,3.4,1.3,3.9,3H59z"/><text x="0" y="115" fill="#000000" font-size="5px" font-weight="bold" font-family="'Helvetica Neue', Helvetica, Arial-Unicode, Arial, Sans-serif">Created by Spicy Icons</text><text x="0" y="120" fill="#000000" font-size="5px" font-weight="bold" font-family="'Helvetica Neue', Helvetica, Arial-Unicode, Arial, Sans-serif">from the Noun Project</text></svg>