<svg id="smile" xmlns="http://www.w3.org/2000/svg" xmlns:xlink="http://www.w3.org/1999/xlink" version="1.1" x="0px" y="0px" viewBox="0 0 100 125" style="enable-background:new 0 0 100 100;" xml:space="preserve"><path d="M63.7,47.3C63.7,47.3,63.7,47.3,63.7,47.3C62.6,45.9,60.9,45,59,45c-0.6,0-1,0.4-1,1s0.4,1,1,1  c0.9,0,1.8,0.3,2.5,0.9C59.9,49,56.2,51,50,51c-5.3,0-8.7-1.9-10.5-3.1c0.7-0.5,1.5-0.9,2.5-0.9c0.6,0,1-0.4,1-1s-0.4-1-1-1  c-1.9,0-3.7,0.9-4.8,2.4c0,0,0,0,0,0c0,0,0,0,0,0c-0.7,1-1.2,2.2-1.2,3.5c0,0.6,0.4,1,1,1s1-0.4,1-1c0-0.5,0.1-1.1,0.3-1.5  C40.3,50.8,44,53,50,53c6.8,0,10.9-2.3,12.7-3.5c0.2,0.5,0.3,1,0.3,1.5c0,0.6,0.4,1,1,1s1-0.4,1-1C65,49.6,64.5,48.4,63.7,47.3  C63.7,47.3,63.7,47.3,63.7,47.3z"/><text x="0" y="115" fill="#000000" font-size="5px" font-weight="bold" font-family="'Helvetica Neue', Helvetica, Arial-Unicode, Arial, Sans-serif">Created by Spicy Icons</text><text x="0" y="120" fill="#000000" font-size="5px" font-weight="bold" font-family="'Helvetica Neue', Helvetica, Arial-Unicode, Arial, Sans-serif">from the Noun Project</text></svg>