<?xml version="1.0" encoding="utf-8"?>
<!-- Generator: Adobe Illustrator 19.2.1, SVG Export Plug-In . SVG Version: 6.00 Build 0)  -->
<svg version="1.1" id="Layer_1" xmlns="http://www.w3.org/2000/svg" xmlns:xlink="http://www.w3.org/1999/xlink" x="0px" y="0px"
	 viewBox="0 0 281 592.8" style="enable-background:new 0 0 281 592.8;" xml:space="preserve">
<g>
	<path d="M140.5,3.1c-1.6-1.8-4-3-6.6-3.1c-2.5,0-4.9,1.2-6.5,2.9C75.3,59.5,42.2,154,43.9,261.4C16.2,293-0.8,339.4,0,391.3
		c0.3,18.4,2.9,36.2,7.3,52.9c0,0.1,0.2,0.8,0.2,0.8c1.1,3.6,4.5,6.2,8.4,6.3c1.3,0,2.5-0.2,3.6-0.7c0,0,0.8-0.4,1.2-0.6l53.3-29.4
		c3.8,9.7,7.8,19.2,12.2,28.3c1.5,2.9,4.4,4.9,7.8,5l10.2,0.2c-2.1,5.5-3.2,11.5-3.1,17.8c0.4,25.1,43.9,109.7,43.9,109.7
		s40.7-83.1,40.2-108.2c-0.1-6.4-1.4-12.4-3.7-17.9l7.6,0.1c3.4,0.1,6.3-1.9,7.7-4.7c4.1-8.9,7.8-18.2,11.2-27.9l54.3,31.2
		c0.4,0.2,1.2,0.7,1.2,0.7c1.1,0.5,2.3,0.8,3.6,0.9c3.9,0.1,7.2-2.5,8.2-6c0,0,0.2-0.6,0.2-0.8c3.9-16.6,5.8-34.3,5.5-52.7
		c-0.9-52-19.5-99-48.3-131.5C230.8,157.1,194.5,61.5,140.5,3.1z M181.4,99.4l-91.8-1.5c11.8-29.4,27-55.2,44.6-76.1
		C152.6,43.2,168.6,69.6,181.4,99.4z M21.4,429.5c-2.5-12.3-3.9-25-4.1-37.9c-0.4-21.8,2.6-42.8,8.9-62.4
		c4.7-14.8,11.1-28.3,19-40.4c2.9,40.9,10.9,79.8,22.8,115L21.4,429.5z M167.9,472.9c0,2-0.7,14.2-18.6,56.5c-1.7,4-3.4,8-5.1,11.7
		c-1.8-3.8-3.6-7.7-5.4-11.8c-19.4-43-20.5-55.3-20.6-57.3c-0.1-6.6,1.8-12.8,5.3-17.8L162,455C165.6,459.9,167.8,466.1,167.9,472.9
		z M183.3,438l-84-1.4c-3.8-8.2-7.4-16.7-10.7-25.5c-8.4-22.3-15-46.1-19.5-70.7c-4.8-25.4-7.4-51.8-7.8-78.2
		c-0.4-26.5,1.3-52.8,5.2-78c3.7-24.1,9.4-47.4,16.9-69.2l105.1,1.8c8.2,22,14.7,45.5,19.2,69.8c4.8,25.4,7.4,51.8,7.8,78.2
		c0.4,26.5-1.3,52.8-5.2,78c-3.8,24.5-9.5,48-17.2,70.1C190.1,421.6,186.8,429.9,183.3,438z M263.7,395.8
		c0.2,12.9-0.7,25.5-2.9,37.8l-47.3-27.3c10.7-34.9,17.4-73.5,18.9-114.3c8.3,12.3,15.2,26.1,20.3,41
		C259.7,352.9,263.4,374,263.7,395.8z"/>
	<path d="M162.4,244.3c6.4-6.4,9.9-15,9.7-24.3c-0.3-19-16.1-34.8-35.1-35.1c-9.2-0.2-17.8,3.3-24.3,9.7c-6.4,6.4-9.9,15-9.7,24.3
		c0.2,9.2,3.9,18,10.5,24.6c6.6,6.6,15.4,10.4,24.6,10.5C147.4,254.2,156,250.8,162.4,244.3z M120.3,219.2
		c-0.1-4.6,1.6-8.9,4.9-12.1c3.2-3.2,7.5-4.9,12.1-4.8c9.5,0.2,17.4,8,17.6,17.6c0.1,4.6-1.6,8.9-4.8,12.1
		c-3.2,3.2-7.5,4.9-12.1,4.9c-4.6-0.1-9-1.9-12.3-5.3C122.3,228.2,120.4,223.8,120.3,219.2z"/>
	<path d="M114.5,298.3c-6.4,6.4-9.9,15-9.7,24.3c0.2,9.2,3.9,18,10.5,24.6c6.6,6.6,15.4,10.4,24.6,10.5c9.2,0.2,17.8-3.3,24.3-9.7
		c6.4-6.4,9.9-15,9.7-24.3c-0.1-9.2-3.9-18-10.5-24.6c-6.6-6.6-15.4-10.4-24.6-10.5C129.5,288.4,120.9,291.9,114.5,298.3z
		 M156.6,323.4c0.1,4.6-1.6,8.9-4.8,12.1c-3.2,3.2-7.5,4.9-12.1,4.9c-4.6-0.1-9-2-12.3-5.3c-3.3-3.3-5.2-7.7-5.3-12.3
		c-0.1-4.6,1.7-8.9,4.9-12.1c3.2-3.2,7.5-4.9,12.1-4.8c4.6,0.1,9,1.9,12.3,5.3C154.7,314.5,156.5,318.8,156.6,323.4z"/>
</g>
</svg>
